<?xml version="1.0" standalone="no"?>
<!DOCTYPE svg PUBLIC "-//W3C//DTD SVG 20010904//EN"
 "http://www.w3.org/TR/2001/REC-SVG-20010904/DTD/svg10.dtd">
<svg version="1.0" xmlns="http://www.w3.org/2000/svg"
 width="235.000000pt" height="324.000000pt" viewBox="0 0 235.000000 324.000000"
 preserveAspectRatio="xMidYMid meet">

<g transform="translate(0.000000,324.000000) scale(0.100000,-0.100000)"
fill="#000000" stroke="none">
<path d="M1026 2606 c-21 -8 -43 -19 -49 -25 -6 -6 -34 -11 -62 -11 -64 0
-160 -45 -205 -97 -17 -19 -54 -81 -81 -136 -27 -55 -53 -105 -57 -112 -4 -6
1 -2 11 8 25 28 21 3 -6 -41 -13 -20 -32 -50 -42 -66 -12 -20 -19 -25 -25 -16
-5 8 -16 -9 -30 -46 -19 -53 -21 -72 -16 -204 2 -80 5 -147 6 -150 6 -17 17
52 14 85 -3 34 -2 36 6 15 10 -25 9 -4 -6 150 -4 43 -1 63 14 89 34 63 42 51
37 -56 -4 -92 -3 -93 4 -27 5 40 14 88 21 108 6 19 8 41 4 47 -4 7 -3 9 3 6 5
-3 21 17 34 45 13 28 42 76 65 106 23 31 40 63 37 71 -4 12 -3 13 4 3 7 -9 19
-6 50 17 50 36 108 66 165 85 48 17 249 24 313 12 74 -15 140 -36 170 -56 41
-27 128 -132 176 -212 22 -38 42 -68 44 -68 6 0 -20 71 -40 111 -20 39 -31 52
-102 123 -28 28 -69 71 -90 96 -51 61 -113 116 -140 124 -18 6 -21 4 -15 -16
5 -20 4 -21 -11 -10 -9 8 -14 19 -11 26 7 18 -18 26 -91 32 -38 3 -74 -1 -99
-10z m270 -81 c10 -8 14 -15 8 -15 -5 0 -19 7 -30 15 -10 8 -14 15 -8 15 5 0
19 -7 30 -15z m-506 -25 c0 -5 -5 -10 -11 -10 -5 0 -7 5 -4 10 3 6 8 10 11 10
2 0 4 -4 4 -10z m30 -5 c-15 -18 0 -20 20 -2 7 6 -15 -20 -50 -60 -36 -39 -66
-70 -68 -68 -9 9 53 97 73 104 6 2 9 8 7 14 -2 5 3 14 10 18 19 13 22 11 8 -6z
m-100 -87 c0 -12 -3 -18 -7 -15 -3 4 -12 2 -20 -4 -19 -16 -16 1 4 23 21 23
23 23 23 -4z m-69 -121 c-10 -9 -11 -8 -5 6 3 10 9 15 12 12 3 -3 0 -11 -7
-18z"/>
<path d="M857 2270 c-3 -11 -1 -20 5 -20 6 0 8 -21 6 -50 -2 -35 1 -50 10 -50
13 0 16 56 6 109 -7 35 -19 40 -27 11z"/>
<path d="M1030 2253 c-23 -16 -27 -72 -8 -91 7 -7 28 -12 48 -12 l35 0 -5 57
c-4 50 -8 57 -28 58 -12 1 -31 -5 -42 -12z m48 -26 c6 -30 -7 -67 -23 -67 -24
0 -39 43 -25 69 13 26 43 24 48 -2z"/>
<path d="M1160 2262 c-24 -3 -25 -6 -22 -57 3 -49 6 -55 25 -55 16 0 18 3 9 9
-20 12 -12 85 11 89 14 3 17 -4 17 -42 0 -61 18 -69 22 -9 2 37 7 49 22 51 16
3 18 -2 15 -47 -3 -40 -1 -51 11 -51 12 0 14 10 12 48 -2 26 -8 51 -13 56 -9
10 -63 13 -109 8z"/>
<path d="M976 2031 c-19 -21 -21 -72 -4 -89 7 -7 30 -12 51 -12 32 0 38 3 33
16 -3 9 -6 34 -6 57 0 39 -2 42 -29 44 -17 1 -35 -5 -45 -16z m52 -50 c-2 -28
-7 -36 -23 -36 -15 0 -21 8 -23 33 -2 18 2 40 9 48 19 23 41 -3 37 -45z"/>
<path d="M1088 1989 c4 -68 22 -81 22 -15 0 49 24 82 41 55 5 -8 9 -33 9 -56
0 -29 4 -43 13 -43 10 0 12 12 7 51 -7 56 -18 67 -64 67 l-31 0 3 -59z"/>
<path d="M1682 1868 c-1 -35 -8 -85 -17 -113 -8 -27 -15 -79 -16 -115 -1 -36
-4 -55 -6 -42 -2 12 -8 22 -11 22 -4 0 -24 -35 -45 -77 -20 -43 -57 -100 -82
-128 -24 -27 -45 -58 -45 -67 0 -25 -11 -48 -20 -43 -5 3 -6 -4 -3 -15 3 -11
9 -20 14 -20 5 0 9 -9 9 -19 0 -11 4 -23 10 -26 6 -3 7 1 4 10 -4 8 -3 32 1
53 l8 37 9 -33 c6 -22 5 -45 -2 -66 -5 -17 -8 -47 -6 -66 l4 -34 -29 34 c-17
19 -36 42 -44 50 -18 20 -22 79 -6 108 17 31 9 28 -44 -18 -26 -23 -66 -46
-91 -52 -24 -7 -44 -16 -44 -21 0 -4 9 -5 20 -2 16 5 34 -7 82 -54 33 -34 64
-61 68 -61 11 0 33 -67 26 -79 -11 -17 -8 -156 4 -201 6 -24 27 -64 46 -88 19
-25 34 -51 34 -58 0 -8 4 -13 9 -11 16 4 124 -134 131 -167 4 -23 11 -30 26
-28 18 2 63 -52 115 -137 9 -14 23 -25 32 -23 9 1 44 -11 77 -28 55 -28 62
-29 76 -15 19 19 16 19 63 -6 22 -11 50 -21 63 -22 12 0 27 -6 31 -12 5 -5 6
1 3 15 -3 14 -6 42 -6 63 0 25 -4 36 -11 31 -6 -3 -14 -2 -18 4 -4 6 -17 9
-29 5 -12 -3 -19 -9 -16 -14 3 -5 -4 -9 -15 -9 -11 0 -22 4 -26 9 -3 5 -21 7
-41 5 -22 -3 -43 1 -57 11 -20 14 -12 15 93 16 63 0 126 2 140 5 29 5 70 48
69 72 0 14 -2 13 -9 -3 -13 -33 -37 -48 -65 -41 -14 4 -25 12 -25 19 0 13 -40
43 -52 39 -4 -1 -5 5 -1 14 5 14 9 13 24 -7 17 -23 18 -21 14 102 -2 70 -8
136 -14 147 -6 11 -11 33 -12 49 l-1 28 -9 -32 c-5 -18 -14 -33 -19 -33 -6 0
-10 -4 -10 -10 0 -5 6 -10 14 -10 21 0 40 -27 24 -33 -10 -4 -10 -7 1 -15 10
-7 11 -14 2 -28 -9 -17 -10 -17 -11 -1 0 10 -8 17 -21 17 -12 0 -23 8 -26 20
-5 21 -23 28 -23 10 0 -6 -7 -22 -16 -36 -13 -19 -20 -22 -30 -13 -8 6 -14 8
-14 4 0 -4 -7 -2 -15 5 -8 7 -15 21 -15 31 0 11 -6 19 -14 19 -15 0 -25 27
-19 47 2 7 11 9 20 6 12 -5 14 -1 8 18 l-7 24 21 -24 c11 -13 21 -35 21 -48 0
-12 5 -23 10 -23 6 0 10 8 8 18 -2 10 2 16 10 14 10 -2 12 6 8 29 -6 38 -16
51 -16 20 0 -20 -1 -21 -16 -7 -19 20 -30 81 -17 98 6 9 5 21 -3 38 -10 19
-14 20 -14 8 0 -10 -5 -18 -11 -18 -6 0 -8 -7 -5 -16 3 -9 9 -28 12 -42 5 -25
4 -25 -7 -7 -6 11 -21 30 -32 43 -20 22 -20 22 -1 36 10 8 16 18 11 22 -4 4
-7 2 -7 -4 0 -20 -41 -13 -61 11 -21 25 -25 67 -6 67 9 0 9 2 0 8 -7 5 -9 13
-3 22 7 11 11 11 24 1 9 -8 16 -20 16 -27 0 -19 10 -17 40 6 14 11 30 20 35
20 14 0 65 56 65 71 0 7 14 -6 31 -29 17 -24 33 -41 36 -38 10 9 -10 95 -31
132 -18 32 -32 43 -81 60 -60 21 -60 21 -57 59 4 40 -15 98 -29 90 -4 -3 -4
-17 1 -31 13 -33 13 -81 0 -89 -5 -3 -10 0 -11 7 -1 7 -5 2 -9 -12 -7 -21 -8
-19 -9 16 -1 53 -19 103 -66 182 -37 63 -43 88 -13 55 22 -25 68 -110 84 -158
l14 -40 -6 43 c-4 27 -2 42 5 42 19 0 12 15 -24 54 -33 36 -39 49 -36 69 1 4
-9 22 -23 40 -35 47 -49 78 -53 117 -4 33 -3 34 11 15 9 -11 16 -16 16 -11 0
5 -7 18 -16 27 -13 14 -16 38 -16 105 1 102 -13 156 -16 62z m48 -312 c0 -12
-5 -7 -19 24 -11 24 -11 24 3 6 9 -11 16 -24 16 -30z m-20 -14 c0 -7 -4 -10
-10 -7 -5 3 -10 16 -10 28 0 18 2 19 10 7 5 -8 10 -21 10 -28z m-15 -54 c28
-71 29 -74 8 -48 -23 29 -46 90 -34 90 5 0 17 -19 26 -42z m-55 -8 c0 -13 -1
-13 -10 0 -5 8 -10 22 -10 30 0 13 1 13 10 0 5 -8 10 -22 10 -30z m-43 -57
c15 -90 8 -105 -16 -34 -15 47 -15 79 1 63 6 -6 13 -20 15 -29z m107 -10 c20
-22 24 -31 12 -29 -19 3 -45 35 -46 55 0 8 1 12 3 10 1 -2 15 -18 31 -36z
m-156 5 c-1 -13 1 -69 6 -125 8 -105 1 -203 -15 -203 -10 0 -7 33 6 63 4 10 3
29 -4 43 -6 14 -11 35 -10 47 1 21 1 20 9 -3 8 -24 8 -24 9 7 1 17 -4 33 -9
35 -17 5 -23 71 -11 116 13 45 23 56 19 20z m224 -31 c17 -34 21 -57 19 -121
-1 -44 -4 -82 -7 -85 -3 -4 -4 27 -2 67 1 39 0 72 -4 72 -5 0 -8 9 -8 20 0 12
-9 39 -21 61 -11 23 -16 38 -10 34 6 -3 21 -25 33 -48z m-205 -14 c-3 -10 -5
-4 -5 12 0 17 2 24 5 18 2 -7 2 -21 0 -30z m97 -65 c22 -31 20 -81 -4 -128
-22 -44 -36 -53 -24 -17 4 12 8 38 9 57 1 19 5 47 9 63 6 18 4 27 -3 27 -6 0
-11 -13 -11 -30 0 -16 -4 -30 -8 -30 -4 0 -8 37 -9 83 0 82 0 82 13 40 7 -24
20 -53 28 -65z m20 22 c5 -17 4 -20 -2 -10 -5 8 -13 26 -16 40 -5 17 -4 20 2
10 5 -8 13 -26 16 -40z m-107 -27 c-3 -10 -5 -2 -5 17 0 19 2 27 5 18 2 -10 2
-26 0 -35z m-217 -60 c-11 -17 -11 -17 -6 0 3 10 6 24 7 30 0 9 2 9 5 0 3 -7
0 -20 -6 -30z m228 -3 c-2 -22 -6 -40 -10 -40 -10 0 -10 8 -2 49 9 43 15 39
12 -9z m149 -22 c-3 -8 -6 -5 -6 6 -1 11 2 17 5 13 3 -3 4 -12 1 -19z m-220
-10 c-3 -8 -6 -5 -6 6 -1 11 2 17 5 13 3 -3 4 -12 1 -19z m110 0 c-3 -8 -6 -5
-6 6 -1 11 2 17 5 13 3 -3 4 -12 1 -19z m-254 -43 c9 -18 9 -19 -6 -6 -10 7
-17 23 -16 35 0 14 2 16 6 6 3 -8 10 -24 16 -35z m328 -34 c-11 -34 -27 -68
-36 -77 -8 -8 -15 -27 -15 -42 -1 -26 -1 -26 -15 -8 -8 11 -15 27 -15 37 0 17
67 121 82 127 4 2 8 13 9 25 0 12 3 17 5 10 3 -6 -4 -39 -15 -72z m-99 37 c-8
-8 -9 -4 -5 13 4 13 8 18 11 10 2 -7 -1 -18 -6 -23z m78 3 c0 -5 -9 -19 -20
-32 l-21 -24 16 33 c15 31 25 41 25 23z m200 -135 c-14 -14 -40 13 -40 42 l0
25 25 -29 c15 -18 21 -32 15 -38z m-103 32 c-3 -8 -6 -5 -6 6 -1 11 2 17 5 13
3 -3 4 -12 1 -19z m-223 -38 c5 -17 4 -20 -2 -10 -5 8 -13 26 -16 40 -5 17 -4
20 2 10 5 -8 13 -26 16 -40z m159 -7 c-6 -56 -26 -64 -38 -16 -5 20 0 32 17
48 13 12 24 22 24 21 1 0 0 -24 -3 -53z m-266 -35 c-3 -8 -6 -5 -6 6 -1 11 2
17 5 13 3 -3 4 -12 1 -19z m111 -43 c-3 -3 -9 2 -12 12 -6 14 -5 15 5 6 7 -7
10 -15 7 -18z m108 4 c19 -22 19 -22 -5 -9 -15 8 -21 8 -17 1 4 -6 20 -18 37
-26 16 -9 29 -20 29 -25 0 -17 -19 -11 -50 18 -22 19 -29 32 -25 45 9 21 8 21
31 -4z m-126 -94 c0 -5 11 -23 26 -42 14 -18 20 -33 14 -33 -6 0 -8 -4 -5 -10
9 -15 -8 -12 -31 5 -24 18 -38 19 -28 3 4 -7 -1 -5 -12 4 -11 9 -21 29 -22 43
-2 25 -1 25 33 -10 20 -19 41 -35 48 -35 7 0 1 9 -13 20 -14 10 -25 23 -25 29
0 6 -9 16 -19 24 -19 14 -29 44 -20 59 5 8 54 -44 54 -57z m106 -53 c-6 -6
-26 43 -25 61 0 7 7 -3 15 -22 8 -18 13 -36 10 -39z m44 -9 c0 -57 -5 -53 -14
11 -5 33 -4 46 3 41 6 -3 11 -27 11 -52z m169 23 c-3 -3 -11 5 -18 17 -13 21
-12 21 5 5 10 -10 16 -20 13 -22z m8 -38 c-3 -8 -6 -5 -6 6 -1 11 2 17 5 13 3
-3 4 -12 1 -19z m-351 -38 c8 0 14 -5 14 -11 0 -6 7 -8 16 -5 8 3 12 2 9 -4
-3 -6 0 -13 9 -16 8 -3 22 -17 32 -31 l16 -26 -38 29 c-56 41 -104 86 -103 98
0 6 7 1 16 -11 8 -13 22 -23 29 -23z m221 8 c-3 -8 -6 -5 -6 6 -1 11 2 17 5
13 3 -3 4 -12 1 -19z m-90 -25 c-3 -10 -5 -4 -5 12 0 17 2 24 5 18 2 -7 2 -21
0 -30z m109 1 c-4 -14 -9 -24 -12 -21 -3 2 -2 17 2 31 3 15 9 25 11 22 3 -3 2
-17 -1 -32z m-158 13 c-1 -2 4 -12 12 -23 14 -19 14 -19 -7 0 -13 10 -20 23
-17 28 3 5 8 7 11 4 2 -2 3 -6 1 -9z m73 -38 c-5 -13 -10 -19 -10 -12 -1 15
10 45 15 40 3 -2 0 -15 -5 -28z m36 -1 c-3 -7 -5 -2 -5 12 0 14 2 19 5 13 2
-7 2 -19 0 -25z m130 -20 c-3 -7 -5 -2 -5 12 0 14 2 19 5 13 2 -7 2 -19 0 -25z
m-40 -65 c-2 -16 -4 -3 -4 27 0 30 2 43 4 28 2 -16 2 -40 0 -55z m20 15 c-3
-7 -5 -2 -5 12 0 14 2 19 5 13 2 -7 2 -19 0 -25z m-107 -47 c0 -11 -4 -10 -15
5 -8 10 -14 26 -14 34 0 11 3 10 14 -4 8 -11 15 -27 15 -35z m318 -25 c-16
-37 -38 -33 -37 7 1 30 1 31 9 7 8 -23 8 -23 9 8 1 30 3 32 16 18 12 -12 13
-20 3 -40z m-98 8 c0 -8 5 -14 10 -14 6 0 10 -4 10 -9 0 -23 -34 -2 -37 23 -3
18 0 25 7 21 5 -3 10 -13 10 -21z m150 -14 c0 -15 -7 -20 -25 -20 -14 0 -25 4
-25 8 0 7 30 27 48 31 1 1 2 -8 2 -19z m-113 -12 c-3 -8 -6 -5 -6 6 -1 11 2
17 5 13 3 -3 4 -12 1 -19z m-203 -73 c-3 -26 -10 -42 -14 -35 -7 11 10 93 18
86 2 -2 0 -25 -4 -51z m216 5 c0 -5 -4 -10 -10 -10 -5 0 -10 5 -10 10 0 6 5
10 10 10 6 0 10 -4 10 -10z m70 -50 c0 -5 7 -10 15 -10 8 0 15 -6 15 -14 0
-10 -11 -14 -37 -13 -30 2 -38 6 -40 22 l-3 20 9 -20 c9 -19 10 -19 10 3 1 21
31 33 31 12z m-70 -30 c0 -5 -2 -10 -4 -10 -3 0 -8 5 -11 10 -3 6 -1 10 4 10
6 0 11 -4 11 -10z m-150 -24 c0 -11 -19 -15 -25 -6 -3 5 1 10 9 10 9 0 16 -2
16 -4z m20 -26 c0 -5 -2 -10 -4 -10 -3 0 -8 5 -11 10 -3 6 -1 10 4 10 6 0 11
-4 11 -10z m264 -81 c-3 -5 -14 -4 -25 1 -20 11 -24 22 -12 33 9 9 44 -23 37
-34z"/>
<path d="M1532 1360 c0 -14 2 -19 5 -12 2 6 2 18 0 25 -3 6 -5 1 -5 -13z"/>
<path d="M527 1826 c-10 -68 -27 -122 -46 -143 -9 -10 -22 -34 -28 -53 -6 -19
-19 -54 -27 -77 -9 -25 -15 -73 -15 -121 1 -90 13 -116 74 -158 22 -14 33 -19
26 -10 -11 14 -11 16 2 16 19 0 90 -78 82 -90 -3 -5 -32 -17 -63 -26 -164 -47
-262 -133 -262 -230 0 -32 2 -35 15 -24 9 8 12 16 6 19 -5 3 6 23 26 44 l35
38 29 -30 c16 -17 33 -31 37 -31 11 0 58 52 64 70 2 8 16 0 38 -24 33 -35 60
-47 60 -26 0 6 5 10 10 10 6 0 10 -13 10 -30 0 -16 5 -30 10 -30 12 0 14 47 2
54 -11 7 3 134 19 169 16 36 27 34 35 -7 3 -19 14 -42 24 -51 16 -15 17 -14
13 10 -3 13 -9 22 -14 19 -12 -7 -11 4 2 19 5 7 18 28 27 47 10 20 38 48 66
67 27 18 53 38 57 45 6 9 19 1 49 -29 55 -56 66 -90 46 -138 -22 -52 -20 -53
14 -10 24 30 29 45 26 79 -2 23 -9 55 -17 71 -15 30 -88 93 -156 134 -22 13
-70 51 -106 85 -52 47 -71 73 -84 111 -9 28 -19 52 -23 55 -9 8 -32 88 -45
160 l-11 65 -7 -49z m12 -108 c-6 -21 -6 -34 1 -36 5 -2 0 -22 -11 -44 -11
-22 -18 -42 -15 -45 5 -6 -31 -83 -39 -83 -12 0 -3 29 14 49 11 13 17 29 15
36 -3 7 2 27 10 44 24 46 19 50 -11 8 -14 -20 -28 -35 -31 -32 -3 2 7 22 21
42 14 21 31 50 36 66 14 38 22 34 10 -5z m48 -120 c-3 -8 -6 -5 -6 6 -1 11 2
17 5 13 3 -3 4 -12 1 -19z m-107 -16 c0 -5 -7 -17 -15 -28 -14 -18 -14 -17 -4
9 12 27 19 34 19 19z m120 -14 c0 -7 11 -28 24 -47 13 -20 27 -47 31 -61 l7
-25 -27 25 c-32 29 -70 100 -55 100 6 0 8 5 5 10 -3 6 -1 10 4 10 6 0 11 -5
11 -12z m-9 -71 l23 -32 -23 20 c-13 11 -27 28 -33 39 -16 29 7 11 33 -27z
m-2 -43 c32 -39 42 -61 39 -78 -4 -17 -1 -23 9 -19 17 7 17 -6 -3 -52 -10 -25
-13 -50 -9 -78 5 -28 4 -38 -4 -33 -6 4 -11 14 -11 22 0 8 -18 32 -40 54 -60
60 -84 111 -76 162 8 49 22 78 39 78 7 -1 32 -26 56 -56z m118 -76 c-2 -13 -4
-3 -4 22 0 25 2 35 4 23 2 -13 2 -33 0 -45z m32 -80 c-4 -24 -11 -51 -14 -60
-8 -19 -35 -25 -35 -7 0 5 5 7 11 3 7 -4 7 1 -1 16 -8 15 -8 20 -1 16 11 -7
15 -1 25 47 10 45 24 31 15 -15z m-65 -62 c-6 -25 -24 -37 -24 -15 0 15 21 52
26 46 3 -3 2 -16 -2 -31z m27 -53 c-8 -15 -10 -15 -11 -2 0 17 10 32 18 25 2
-3 -1 -13 -7 -23z"/>
<path d="M707 1836 c-3 -7 -1 -18 5 -24 6 -6 9 -31 7 -56 -3 -32 0 -46 8 -46
9 0 13 16 13 48 0 75 -18 117 -33 78z"/>
<path d="M765 1770 c0 -41 4 -60 13 -60 8 0 12 15 12 44 0 49 24 82 41 55 5
-8 9 -33 9 -56 0 -29 4 -43 13 -43 10 0 12 12 7 51 -7 56 -20 69 -65 69 l-30
0 0 -60z"/>
<path d="M890 1815 c-17 -20 -6 -43 25 -51 17 -4 25 -12 23 -23 -5 -25 -35
-25 -42 1 -5 14 -9 18 -13 10 -7 -19 17 -43 41 -40 14 2 22 12 24 29 2 21 -2
28 -22 33 -26 6 -35 29 -16 41 6 3 14 -4 18 -16 6 -15 11 -19 16 -10 9 14 -10
41 -29 41 -7 0 -18 -7 -25 -15z"/>
<path d="M985 1816 c-21 -15 -25 -67 -5 -90 15 -19 44 -21 58 -3 15 18 12 70
-6 90 -18 21 -23 21 -47 3z m43 -24 c2 -16 -2 -22 -15 -23 -14 -1 -12 -3 5 -7
21 -6 22 -9 9 -27 -12 -16 -18 -17 -30 -7 -27 23 -13 99 17 89 6 -2 12 -13 14
-25z"/>
<path d="M1076 1808 c-19 -26 -20 -51 -6 -79 14 -25 56 -25 70 1 6 11 7 20 1
20 -5 0 -11 -7 -15 -15 -7 -20 -32 -19 -40 1 -16 42 7 96 34 79 16 -10 12 -25
-7 -25 -13 0 -14 -3 -5 -12 9 -9 16 -8 30 6 16 16 16 18 -2 32 -27 20 -42 18
-60 -8z"/>
<path d="M1167 1783 c7 -60 17 -73 57 -73 31 0 31 0 28 48 -5 72 -15 83 -22
22 -3 -40 -9 -55 -20 -55 -11 0 -16 14 -20 49 -3 27 -10 51 -16 53 -8 3 -10
-11 -7 -44z"/>
<path d="M1295 1770 c0 -47 3 -60 15 -60 12 0 14 10 11 46 -3 48 13 82 25 51
3 -9 10 -14 16 -11 16 10 -13 34 -41 34 -25 0 -26 -2 -26 -60z"/>
<path d="M1387 1812 c-43 -47 0 -126 51 -93 19 12 23 62 6 89 -18 27 -35 28
-57 4z m49 -31 c-10 -15 -46 -14 -46 2 0 7 5 18 12 25 10 10 15 9 26 -2 8 -8
11 -19 8 -25z m2 -38 c-2 -10 -12 -18 -23 -18 -11 0 -21 8 -23 18 -3 13 3 17
23 17 20 0 26 -4 23 -17z"/>
<path d="M895 1601 c-17 -5 -20 -15 -20 -59 0 -45 3 -52 20 -52 15 0 16 3 7
12 -16 16 -15 73 1 87 21 16 37 -6 38 -53 l2 -41 6 40 c9 55 19 69 37 54 17
-14 18 -71 2 -87 -9 -9 -8 -12 8 -12 17 0 20 6 19 45 -1 26 -7 51 -14 58 -13
13 -72 17 -106 8z"/>
<path d="M1057 1592 c-21 -23 -22 -66 -1 -86 20 -20 33 -20 57 1 18 17 19 17
28 0 12 -21 42 -22 60 -1 11 14 13 14 21 0 11 -19 39 -21 56 -4 20 20 14 37
-18 53 -19 10 -27 20 -23 31 6 17 29 13 25 -5 -1 -6 2 -11 8 -11 13 0 13 27 0
35 -18 11 -50 -6 -50 -26 0 -11 11 -24 25 -31 14 -6 24 -18 23 -26 -5 -25 -27
-25 -37 0 -4 12 -11 22 -15 20 -3 -1 -20 4 -36 13 -19 10 -27 20 -24 30 8 19
24 19 24 0 0 -8 5 -15 10 -15 16 0 12 27 -5 34 -24 9 -45 -4 -45 -30 0 -17 7
-25 26 -30 15 -4 24 -12 22 -22 -5 -24 -29 -27 -35 -4 -3 14 -10 19 -21 15
-12 -5 -14 -2 -9 12 9 21 -17 65 -37 65 -7 0 -20 -8 -29 -18z m53 -28 c0 -8
-10 -15 -22 -15 l-23 -2 23 -4 c29 -6 26 -38 -3 -38 -15 0 -21 8 -23 33 -4 41
14 68 34 51 8 -6 14 -18 14 -25z"/>
<path d="M1026 1214 c-19 -13 -17 -14 16 -14 19 0 41 7 48 15 9 10 9 15 1 15
-6 0 -11 -4 -11 -10 0 -13 -27 -13 -32 -1 -1 5 -12 3 -22 -5z"/>
<path d="M1125 1163 c10 -10 24 -13 41 -9 32 8 29 12 -19 19 -33 5 -36 4 -22
-10z"/>
<path d="M1055 1140 c3 -5 10 -10 16 -10 5 0 9 5 9 10 0 6 -7 10 -16 10 -8 0
-12 -4 -9 -10z"/>
<path d="M1002 1133 c-27 -5 -59 -70 -42 -87 7 -7 10 -6 10 3 0 7 6 11 15 8 8
-4 17 -2 20 4 4 5 3 9 -2 8 -19 -3 -36 2 -29 8 4 4 24 7 44 6 l37 -1 -33 6
c-42 9 -45 21 -7 37 31 14 27 16 -13 8z"/>
<path d="M1068 1093 c6 -2 10 -9 7 -13 -11 -18 11 -16 28 2 16 17 16 18 -15
17 -18 0 -27 -3 -20 -6z"/>
<path d="M1166 1089 c3 -6 0 -15 -7 -20 -11 -7 -11 -9 -1 -9 7 0 20 6 27 14
12 12 12 15 -1 20 -22 9 -26 7 -18 -5z"/>
<path d="M1220 1056 c0 -3 5 -15 12 -26 15 -24 -1 -76 -23 -74 -7 1 -39 9 -69
17 -47 14 -52 14 -35 2 10 -8 33 -19 50 -24 16 -5 47 -16 68 -25 l38 -17 14
35 c20 47 19 75 -2 83 -10 3 -26 13 -35 21 -10 8 -18 12 -18 8z m60 -65 c0 -6
-5 -13 -10 -16 -6 -4 -8 -10 -5 -15 6 -10 -23 -35 -32 -26 -3 3 -1 6 6 6 7 0
10 4 6 9 -3 5 -1 12 4 16 6 3 8 12 4 20 -3 9 1 15 11 15 9 0 16 -4 16 -9z"/>
<path d="M1980 1020 c0 -11 5 -20 10 -20 6 0 10 9 10 20 0 11 -4 20 -10 20 -5
0 -10 -9 -10 -20z"/>
<path d="M1006 992 c4 -37 21 -49 40 -30 21 21 12 44 -19 50 -20 4 -24 1 -21
-20z m42 -11 c3 -8 -1 -12 -9 -9 -7 2 -15 10 -17 17 -3 8 1 12 9 9 7 -2 15
-10 17 -17z"/>
<path d="M2037 1005 c-4 -8 -2 -17 3 -20 6 -4 10 3 10 14 0 25 -6 27 -13 6z"/>
<path d="M1910 1002 c0 -8 23 -22 65 -41 16 -7 -19 23 -43 37 -12 7 -22 8 -22
4z"/>
<path d="M1877 980 c-9 -11 -13 -20 -8 -20 11 0 35 29 29 35 -2 2 -12 -4 -21
-15z"/>
<path d="M492 950 c0 -14 2 -19 5 -12 2 6 2 18 0 25 -3 6 -5 1 -5 -13z"/>
<path d="M1826 955 c4 -8 10 -15 15 -15 4 0 6 7 3 15 -4 8 -10 15 -15 15 -4 0
-6 -7 -3 -15z"/>
<path d="M2005 959 c-4 -6 -5 -12 -2 -15 2 -3 7 2 10 11 7 17 1 20 -8 4z"/>
<path d="M340 940 c0 -11 5 -20 10 -20 6 0 10 9 10 20 0 11 -4 20 -10 20 -5 0
-10 -9 -10 -20z"/>
<path d="M526 915 c-11 -14 -25 -24 -33 -21 -7 3 -13 1 -13 -4 0 -18 26 -10
50 15 l24 25 29 -30 c16 -16 33 -30 37 -30 5 0 -7 16 -26 35 -18 19 -37 35
-41 35 -5 0 -17 -11 -27 -25z"/>
<path d="M437 919 c7 -7 15 -10 18 -7 3 3 -2 9 -12 12 -14 6 -15 5 -6 -5z"/>
<path d="M932 900 c0 -14 2 -19 5 -12 2 6 2 18 0 25 -3 6 -5 1 -5 -13z"/>
<path d="M2051 908 c-1 -9 -6 -18 -11 -20 -7 -2 -4 -17 7 -38 21 -41 28 -23
14 35 -5 22 -9 33 -10 23z"/>
<path d="M1122 884 c10 -10 20 -16 22 -13 3 3 -5 11 -17 18 -21 13 -21 12 -5
-5z"/>
<path d="M340 880 c8 -5 20 -10 25 -10 6 0 3 5 -5 10 -8 5 -19 10 -25 10 -5 0
-3 -5 5 -10z"/>
<path d="M941 854 c0 -11 3 -14 6 -6 3 7 2 16 -1 19 -3 4 -6 -2 -5 -13z"/>
<path d="M1190 842 c12 -10 26 -36 30 -58 l8 -39 1 36 c1 25 -6 42 -22 57 -13
12 -27 22 -31 22 -5 0 2 -8 14 -18z"/>
<path d="M411 843 c0 -6 -9 -19 -18 -28 -16 -16 -16 -18 0 -27 9 -5 17 -16 17
-23 0 -8 4 -15 9 -15 11 0 22 53 11 60 -4 3 -10 14 -13 25 -2 11 -5 15 -6 8z"/>
<path d="M290 828 c0 -9 -4 -18 -9 -20 -11 -4 -14 -21 -11 -78 1 -30 4 -39 9
-27 6 16 9 17 19 4 7 -8 10 -21 6 -30 -4 -12 -1 -14 15 -10 17 4 21 1 21 -21
0 -31 16 -35 25 -6 3 11 12 19 18 17 7 -1 11 7 10 20 -1 11 4 27 13 33 19 16
31 5 15 -14 -8 -10 -9 -16 -1 -21 5 -3 10 1 10 10 0 18 24 15 26 -3 1 -7 2
-17 3 -23 1 -8 5 -8 14 0 10 8 17 7 26 -2 9 -9 14 -9 20 2 5 7 14 10 20 7 7
-5 11 2 11 19 l0 26 -23 -25 -23 -25 -42 38 -42 39 -32 -37 -32 -37 -28 26
c-23 23 -27 33 -22 59 4 17 10 31 15 31 14 0 10 13 -11 40 -15 19 -20 21 -20
8z m3 -68 c3 -11 1 -23 -4 -26 -5 -3 -9 6 -9 20 0 31 6 34 13 6z"/>
<path d="M551 828 c0 -10 -8 -18 -16 -18 -8 0 -15 -5 -15 -10 0 -6 7 -13 15
-16 8 -4 15 -12 15 -20 0 -20 16 -17 24 4 3 9 9 23 12 30 3 7 -1 12 -9 12 -9
0 -18 8 -20 18 -4 16 -5 16 -6 0z"/>
<path d="M640 815 c0 -5 5 -17 10 -25 5 -8 10 -10 10 -5 0 6 -5 17 -10 25 -5
8 -10 11 -10 5z"/>
<path d="M1993 813 c-17 -6 -16 -21 1 -39 10 -9 17 -11 21 -3 5 7 13 4 26 -7
11 -10 19 -12 19 -6 0 7 -4 12 -10 12 -5 0 -10 9 -10 20 0 18 -3 19 -20 10
-16 -9 -18 -8 -14 5 6 16 6 16 -13 8z"/>
<path d="M664 735 c3 -16 2 -36 -3 -44 -8 -12 -12 -11 -27 4 -18 18 -19 17
-24 -6 -4 -15 -12 -23 -23 -21 -11 2 -15 -2 -11 -13 7 -16 20 -20 26 -6 2 4
13 12 26 15 16 6 22 3 22 -8 0 -30 16 -16 26 22 7 28 6 43 -4 62 l-13 25 5
-30z"/>
<path d="M565 730 c-8 -13 14 -42 26 -34 5 3 9 14 9 25 0 20 -24 26 -35 9z"/>
<path d="M1995 730 c3 -5 10 -10 16 -10 5 0 9 5 9 10 0 6 -7 10 -16 10 -8 0
-12 -4 -9 -10z"/>
<path d="M1890 715 c0 -8 5 -15 10 -15 6 0 10 7 10 15 0 8 -4 15 -10 15 -5 0
-10 -7 -10 -15z"/>
<path d="M1193 701 c-16 -25 -17 -34 -3 -26 6 3 10 3 10 -2 0 -4 13 -17 28
-27 l27 -19 -22 24 c-12 13 -23 34 -25 47 -3 22 -3 22 -15 3z"/>
<path d="M1955 677 c-10 -8 -14 -16 -9 -19 5 -3 18 3 28 13 22 22 9 26 -19 6z"/>
<path d="M2040 680 c0 -5 5 -10 10 -10 6 0 10 5 10 10 0 6 -4 10 -10 10 -5 0
-10 -4 -10 -10z"/>
<path d="M270 651 c0 -25 6 -27 13 -6 4 8 2 17 -3 20 -6 4 -10 -3 -10 -14z"/>
<path d="M301 624 c0 -11 3 -14 6 -6 3 7 2 16 -1 19 -3 4 -6 -2 -5 -13z"/>
<path d="M385 630 c3 -5 8 -10 11 -10 2 0 4 5 4 10 0 6 -5 10 -11 10 -5 0 -7
-4 -4 -10z"/>
<path d="M450 628 c0 -4 4 -8 9 -8 6 0 12 4 15 8 3 5 -1 9 -9 9 -8 0 -15 -4
-15 -9z"/>
<path d="M505 630 c3 -5 8 -10 11 -10 2 0 4 5 4 10 0 6 -5 10 -11 10 -5 0 -7
-4 -4 -10z"/>
<path d="M540 630 c0 -5 5 -10 10 -10 6 0 10 5 10 10 0 6 -4 10 -10 10 -5 0
-10 -4 -10 -10z"/>
<path d="M647 617 c3 -5 12 -6 21 -2 8 3 19 0 24 -7 6 -10 8 -9 8 4 0 13 -7
17 -29 15 -16 -1 -27 -6 -24 -10z"/>
<path d="M271 593 c1 -41 16 -122 18 -95 1 21 2 22 17 8 8 -9 13 -22 11 -29
-4 -9 -6 -9 -6 1 -1 10 -5 10 -16 -2 -11 -11 -14 -26 -10 -51 3 -19 7 -50 10
-69 5 -29 2 -36 -15 -41 -24 -8 -21 -15 7 -19 10 -2 19 -13 21 -25 2 -13 12
-31 23 -42 16 -16 23 -17 43 -7 20 8 30 8 48 -4 21 -14 26 -14 46 0 18 12 28
13 49 3 21 -10 29 -9 44 5 10 9 23 13 29 9 9 -6 9 -9 0 -15 -7 -4 -10 -15 -7
-24 7 -18 27 -22 27 -5 0 10 57 69 66 69 2 0 4 -7 4 -15 0 -8 9 -19 19 -24 15
-8 20 -7 23 7 2 9 2 26 0 36 -3 15 -6 16 -12 5 -17 -27 -20 0 -10 87 12 112
13 205 0 224 -8 12 -10 10 -10 -8 0 -30 -31 -26 -45 6 -5 12 -16 20 -22 17 -7
-2 -13 1 -13 9 0 7 -7 13 -15 13 -9 0 -14 -6 -11 -13 7 -17 -11 -28 -17 -12
-4 8 -8 4 -12 -9 -9 -28 -51 -28 -79 1 -13 12 -21 15 -24 8 -2 -8 -11 -3 -23
10 -18 23 -18 23 -19 2 0 -28 -31 -56 -50 -44 -9 6 -17 5 -22 -3 -5 -8 -9 -5
-14 8 -7 20 -38 55 -49 55 -3 0 -5 -12 -4 -27z m175 -56 c7 3 17 -2 20 -11 3
-9 9 -14 13 -12 4 3 12 -4 19 -14 14 -23 -2 -37 -23 -20 -10 9 -14 7 -18 -7
-3 -13 -5 -11 -7 7 -1 23 -2 23 -10 5 l-9 -20 0 20 c-1 11 -4 31 -6 45 -3 14
-3 20 1 13 3 -7 12 -9 20 -6z m204 -32 c0 -8 8 -11 20 -8 14 4 20 0 20 -10 0
-13 -11 -16 -52 -15 -44 2 -54 5 -60 22 -6 20 -6 20 -7 -1 -1 -24 -31 -33 -31
-10 0 20 48 59 54 44 2 -7 5 -4 5 6 1 16 3 16 26 1 14 -9 25 -22 25 -29z
m-247 8 c-7 -2 -13 -12 -13 -21 0 -15 2 -15 10 -2 8 13 10 13 10 -1 0 -12 -8
-16 -25 -15 -14 0 -25 6 -25 11 0 6 -4 4 -9 -4 -6 -9 -11 -10 -15 -2 -7 11 46
41 69 40 6 0 4 -3 -2 -6z m137 -79 c0 -2 -7 -4 -15 -4 -8 0 -15 4 -15 10 0 5
7 7 15 4 8 -4 15 -8 15 -10z m94 4 c-3 -4 -9 -8 -15 -8 -5 0 -9 4 -9 8 0 5 7
9 15 9 8 0 12 -4 9 -9z m-154 -23 c0 -15 -30 -35 -52 -34 -7 0 -3 5 10 11 12
6 22 17 22 25 0 7 5 13 10 13 6 0 10 -7 10 -15z m-116 -32 c-23 -16 -26 -16
-50 2 -18 15 -18 15 7 10 17 -4 30 -1 39 10 11 13 15 14 19 4 2 -7 -4 -18 -15
-26z m301 17 c-22 -25 -58 -26 -76 -2 -13 15 -12 16 3 3 19 -14 68 -8 68 9 0
6 5 10 12 10 6 0 3 -9 -7 -20z m-115 -10 c0 -5 -8 -10 -17 -10 -15 0 -16 2 -3
10 19 12 20 12 20 0z m-132 -31 c8 -20 9 -20 25 -4 16 15 17 15 17 -6 0 -12
-3 -19 -7 -16 -3 4 -12 2 -18 -3 -18 -15 -105 -1 -105 17 0 11 7 13 24 9 16
-4 26 -1 30 9 8 22 25 18 34 -6z m188 -26 c-3 -4 -6 0 -6 8 0 11 -2 11 -10 -1
-7 -12 -10 -8 -10 15 l0 29 16 -22 c9 -13 13 -26 10 -29z m61 25 c-3 -8 -6 -5
-6 6 -1 11 2 17 5 13 3 -3 4 -12 1 -19z m-176 -31 c-7 -7 -12 -5 -17 7 -4 11
-1 21 7 27 17 11 26 -18 10 -34z m57 18 c-3 -29 -28 -34 -28 -6 0 16 7 23 27
30 2 1 2 -10 1 -24z m112 -15 c14 0 17 -5 12 -22 -3 -12 -7 -17 -10 -10 -5 17
-32 15 -32 -3 0 -8 -4 -15 -10 -15 -5 0 -10 5 -10 10 0 6 -7 10 -15 10 -8 0
-15 -6 -15 -13 0 -8 -12 -20 -26 -27 -21 -12 -27 -12 -33 -1 -6 9 -11 10 -15
2 -10 -16 -26 -14 -20 3 7 19 -16 32 -28 15 -7 -11 -11 -11 -15 -1 -2 6 -11
12 -20 12 -10 0 -13 -6 -8 -22 4 -15 3 -19 -3 -10 -5 7 -16 10 -28 6 -16 -6
-17 -5 -6 7 19 20 14 29 -15 28 -16 0 -22 -3 -15 -6 6 -2 12 -12 12 -20 0 -11
-8 -7 -25 13 -13 15 -22 30 -20 32 2 2 43 -1 92 -7 48 -6 93 -11 100 -11 6 0
15 -9 18 -20 3 -11 11 -20 16 -20 14 0 11 38 -3 43 -7 3 -1 6 13 6 48 2 88 13
85 25 -2 6 -1 8 1 4 3 -5 13 -8 23 -8z"/>
<path d="M632 500 c0 -14 2 -19 5 -12 2 6 2 18 0 25 -3 6 -5 1 -5 -13z"/>
<path d="M1520 607 c0 -22 11 -27 33 -16 16 9 17 13 6 20 -21 13 -39 11 -39
-4z"/>
<path d="M340 593 c0 -7 4 -13 9 -13 5 0 11 6 14 13 3 8 -1 14 -9 14 -8 0 -14
-6 -14 -14z"/>
<path d="M380 590 c0 -5 5 -10 10 -10 6 0 10 5 10 10 0 6 -4 10 -10 10 -5 0
-10 -4 -10 -10z"/>
<path d="M505 590 c4 -6 11 -8 16 -5 14 9 11 15 -7 15 -8 0 -12 -5 -9 -10z"/>
<path d="M650 578 c0 -4 7 -8 15 -8 8 0 15 4 15 8 0 5 -7 9 -15 9 -8 0 -15 -4
-15 -9z"/>
<path d="M1441 526 c-18 -22 -1 -48 20 -32 14 10 15 15 4 29 -11 15 -14 15
-24 3z"/>
<path d="M834 523 c-6 -2 -9 -15 -6 -28 2 -14 -2 -32 -9 -41 -10 -13 -10 -17
2 -25 29 -18 37 -10 32 39 -6 60 -6 60 -19 55z"/>
<path d="M1110 474 c-12 -39 -13 -55 -3 -73 11 -24 12 -24 18 10 4 19 5 53 3
74 l-3 39 -15 -50z"/>
<path d="M1316 501 c-10 -11 -24 -37 -31 -58 -16 -46 -4 -53 44 -29 42 22 44
30 23 71 -18 36 -18 36 -36 16z"/>
<path d="M1550 490 c0 -22 7 -25 29 -11 11 7 9 11 -8 20 -18 10 -21 9 -21 -9z"/>
<path d="M771 455 c-33 -39 -41 -56 -15 -34 15 12 16 11 10 -9 -8 -25 8 -52
30 -52 10 0 11 6 5 24 -6 13 -6 40 -1 62 5 21 7 40 6 42 -2 1 -17 -13 -35 -33z"/>
<path d="M1350 407 c0 -7 4 -18 9 -26 8 -12 12 -12 25 2 16 16 15 19 -16 30
-11 4 -18 2 -18 -6z"/>
<path d="M1242 385 c0 -16 2 -22 5 -12 2 9 2 23 0 30 -3 6 -5 -1 -5 -18z"/>
<path d="M885 380 c10 -11 20 -20 23 -20 3 0 -3 9 -13 20 -10 11 -20 20 -23
20 -3 0 3 -9 13 -20z"/>
<path d="M1460 393 c0 -5 5 -15 10 -23 7 -11 12 -12 21 -3 6 6 8 16 5 22 -8
12 -36 15 -36 4z"/>
<path d="M1003 383 c-21 -8 -15 -33 7 -33 13 0 20 7 20 20 0 20 -5 23 -27 13z"/>
<path d="M1570 383 c1 -23 16 -31 33 -18 16 11 16 13 1 19 -21 8 -34 8 -34 -1z"/>
<path d="M748 349 c2 -16 0 -29 -6 -29 -5 0 -13 -8 -16 -17 -6 -15 -4 -15 14
2 20 18 27 59 12 69 -5 3 -6 -8 -4 -25z"/>
<path d="M1677 365 c6 -17 25 -15 31 3 2 7 -5 12 -17 12 -14 0 -19 -5 -14 -15z"/>
<path d="M1075 330 c-10 -11 -13 -20 -7 -20 6 0 16 9 22 20 6 11 9 20 7 20 -2
0 -12 -9 -22 -20z"/>
<path d="M1318 325 c-10 -22 -9 -39 5 -92 15 -58 15 -69 3 -94 -8 -16 -12 -29
-10 -29 20 0 42 25 53 58 12 35 41 55 41 28 0 -48 -25 -89 -75 -126 -30 -23
-55 -47 -55 -55 0 -22 12 -18 48 15 34 31 65 50 79 50 4 0 -1 -7 -11 -15 -11
-8 -15 -15 -9 -15 6 0 22 9 36 20 14 11 27 20 30 20 2 0 2 -20 -1 -45 -3 -30
-1 -45 7 -45 6 0 11 10 12 23 1 21 1 21 8 -3 7 -21 9 -15 16 33 5 40 13 62 26
70 11 7 19 15 19 18 0 10 -39 18 -42 9 -4 -12 -38 18 -71 61 -28 37 -35 55
-17 44 13 -8 12 -5 0 32 -9 26 -21 36 -72 61 -4 2 -13 -8 -20 -23z m42 -35 c0
-22 -4 -40 -10 -40 -12 0 -24 45 -16 65 11 29 26 15 26 -25z"/>
<path d="M899 304 c-10 -13 -10 -17 2 -25 23 -14 29 -11 29 16 0 29 -12 32
-31 9z"/>
<path d="M1079 297 c-20 -15 -13 -37 11 -37 10 0 21 -6 23 -12 3 -7 6 -4 6 8
1 11 -5 28 -11 37 -11 13 -16 14 -29 4z"/>
<path d="M1037 284 c-4 -4 -7 -14 -7 -23 0 -11 3 -12 11 -4 6 6 10 16 7 23 -2
6 -7 8 -11 4z"/>
<path d="M1470 266 c0 -20 13 -27 30 -15 13 8 13 10 0 19 -21 14 -30 12 -30
-4z"/>
<path d="M255 261 c-3 -6 1 -11 9 -11 19 0 19 -1 7 -33 -7 -18 -6 -24 5 -24
11 0 14 10 12 35 -3 35 -20 52 -33 33z"/>
<path d="M781 256 c-9 -11 -7 -15 9 -19 15 -4 20 0 20 14 0 22 -13 25 -29 5z"/>
<path d="M1600 253 c0 -5 5 -15 10 -23 7 -12 12 -12 22 -2 10 10 10 15 -2 22
-18 12 -30 13 -30 3z"/>
<path d="M1880 253 c1 -20 16 -31 30 -22 13 8 13 10 0 19 -18 12 -30 13 -30 3z"/>
<path d="M2013 253 c-29 -6 -29 -11 2 -35 16 -12 25 -29 25 -48 0 -19 6 -29
19 -33 15 -4 18 -1 14 12 -5 13 -2 12 18 -4 l24 -20 -21 25 c-33 40 -37 50
-17 45 10 -3 4 1 -14 10 -24 11 -30 19 -26 35 3 11 4 19 2 19 -2 -1 -14 -4
-26 -6z"/>
<path d="M1742 232 c4 -19 29 -23 35 -6 2 6 -6 14 -17 17 -16 4 -20 1 -18 -11z"/>
<path d="M646 204 c-22 -21 -20 -27 4 -12 11 7 20 16 20 20 0 12 -7 10 -24 -8z"/>
<path d="M2114 205 c3 -9 6 -19 6 -21 0 -2 7 -4 16 -4 22 0 13 34 -10 38 -14
3 -17 0 -12 -13z"/>
<path d="M1106 197 c3 -10 9 -15 12 -12 3 3 0 11 -7 18 -10 9 -11 8 -5 -6z"/>
<path d="M335 179 c-5 -8 22 -46 28 -39 2 3 8 15 11 27 6 18 3 22 -14 20 -12
-1 -23 -4 -25 -8z"/>
<path d="M1025 180 c-7 -12 2 -30 16 -30 5 0 9 9 9 20 0 21 -15 27 -25 10z"/>
<path d="M931 171 c-8 -5 -11 -16 -8 -25 10 -25 27 -19 27 9 0 28 0 28 -19 16z"/>
<path d="M817 152 c-17 -18 -17 -20 -1 -26 22 -8 26 -3 22 24 -3 22 -3 22 -21
2z"/>
<path d="M474 144 c3 -9 6 -18 6 -20 0 -2 5 -4 10 -4 6 0 10 9 10 20 0 12 -7
20 -16 20 -11 0 -14 -5 -10 -16z"/>
<path d="M690 125 c-12 -14 -12 -18 1 -25 10 -7 15 -5 17 5 6 28 -3 38 -18 20z"/>
<path d="M1620 123 c0 -5 5 -15 10 -23 9 -13 11 -13 19 0 7 10 6 17 -2 22 -15
10 -27 10 -27 1z"/>
<path d="M1910 123 c0 -5 5 -15 10 -23 9 -13 11 -13 19 0 5 8 7 18 5 22 -6 10
-34 11 -34 1z"/>
<path d="M530 107 l-35 -10 30 -7 30 -6 -25 -8 c-15 -4 -20 -9 -12 -13 6 -2
10 -9 6 -14 -3 -5 0 -9 5 -9 6 0 11 -8 12 -17 1 -12 4 -9 8 7 5 18 14 25 31
25 16 0 26 7 28 18 3 16 0 18 -20 12 -23 -8 -23 -8 -4 14 19 21 19 21 0 20
-10 0 -35 -6 -54 -12z"/>
<path d="M2081 104 c0 -11 3 -14 6 -6 3 7 2 16 -1 19 -3 4 -6 -2 -5 -13z"/>
<path d="M2116 103 c-8 -21 8 -37 28 -30 21 8 20 20 -3 34 -16 10 -20 9 -25
-4z"/>
<path d="M1043 93 c-13 -8 -23 -22 -23 -30 0 -13 3 -13 16 -3 13 12 39 51 32
49 -2 0 -13 -7 -25 -16z"/>
<path d="M1772 94 c9 -9 21 -13 27 -10 20 13 11 26 -16 26 -25 0 -26 -1 -11
-16z"/>
<path d="M387 71 c-17 -6 -17 -8 2 -25 21 -19 21 -19 21 7 0 15 -1 27 -2 26
-2 0 -11 -4 -21 -8z"/>
<path d="M941 56 c-11 -13 -11 -20 -3 -28 8 -8 13 -7 18 5 10 27 0 41 -15 23z"/>
<path d="M332 40 c0 -14 2 -19 5 -12 2 6 2 18 0 25 -3 6 -5 1 -5 -13z"/>
<path d="M1580 35 c13 -14 25 -25 27 -25 2 0 -4 11 -13 25 -9 14 -21 25 -27
25 -6 0 0 -11 13 -25z"/>
<path d="M815 40 c-7 -12 2 -30 16 -30 5 0 9 9 9 20 0 21 -15 27 -25 10z"/>
<path d="M1512 34 c4 -21 22 -23 26 -1 2 10 -3 17 -13 17 -10 0 -15 -6 -13
-16z"/>
<path d="M735 27 c-14 -11 -15 -16 -5 -22 11 -7 29 9 30 28 0 10 -3 9 -25 -6z"/>
<path d="M2052 18 c6 -18 25 -20 31 -3 5 10 0 15 -14 15 -12 0 -19 -5 -17 -12z"/>
</g>
</svg>
